<?xml version="1.0" standalone="no"?>
<!DOCTYPE svg PUBLIC "-//W3C//DTD SVG 20010904//EN"
 "http://www.w3.org/TR/2001/REC-SVG-20010904/DTD/svg10.dtd">
<svg version="1.0" xmlns="http://www.w3.org/2000/svg"
 width="512.000000pt" height="512.000000pt" viewBox="0 0 512.000000 512.000000"
 preserveAspectRatio="xMidYMid meet">
<metadata>
Created by potrace 1.11, written by Peter Selinger 2001-2013
</metadata>
<g transform="translate(0.000000,512.000000) scale(0.100000,-0.100000)"
fill="#000000" stroke="none">
<path d="M457 3766 c-95 -26 -140 -82 -140 -176 0 -125 88 -190 258 -190 l55
0 0 -804 0 -803 -86 -6 c-172 -12 -255 -97 -224 -231 12 -56 38 -87 96 -116
48 -25 54 -25 317 -28 l267 -4 0 50 0 50 88 -43 c292 -146 665 -150 947 -10
217 107 375 300 436 530 30 112 30 327 1 435 -32 120 -60 184 -114 267 -199
305 -538 466 -891 424 -145 -17 -331 -84 -429 -152 -14 -11 -29 -19 -32 -19
-3 0 -6 189 -6 420 l0 420 -247 -1 c-170 0 -263 -4 -296 -13z m1248 -1041
c173 -44 321 -174 386 -337 29 -73 41 -187 29 -267 -29 -187 -178 -332 -386
-376 -89 -19 -241 -19 -338 0 -202 38 -348 173 -387 357 -16 72 -5 200 22 273
63 169 216 308 387 349 77 19 215 19 287 1z"/>
<path d="M3383 3650 c-17 -6 -45 -24 -62 -41 -51 -50 -61 -106 -61 -335 l0
-202 -117 -4 c-173 -7 -237 -41 -263 -140 -24 -86 13 -167 95 -208 41 -20 67
-25 167 -28 l118 -4 0 -442 c0 -261 5 -459 11 -485 40 -174 197 -323 394 -375
112 -30 272 -41 391 -28 250 28 534 111 658 194 65 43 89 81 94 148 7 93 -42
165 -129 192 -48 14 -97 1 -239 -62 -145 -64 -260 -90 -425 -97 -207 -8 -318
19 -360 89 -19 31 -20 55 -23 450 l-3 417 398 3 398 3 49 25 c28 14 59 37 69
51 40 55 40 163 0 218 -10 14 -41 37 -69 51 l-49 25 -397 3 -397 3 -3 222 c-3
209 -4 225 -26 269 -14 27 -38 56 -57 68 -39 24 -116 34 -162 20z"/>
</g>
</svg>
