<?xml version="1.0" standalone="no"?>
<!DOCTYPE svg PUBLIC "-//W3C//DTD SVG 20010904//EN"
 "http://www.w3.org/TR/2001/REC-SVG-20010904/DTD/svg10.dtd">
<svg version="1.0" xmlns="http://www.w3.org/2000/svg"
 width="512.000000pt" height="512.000000pt" viewBox="0 0 512.000000 512.000000"
 preserveAspectRatio="xMidYMid meet">
<metadata>
Created by potrace 1.11, written by Peter Selinger 2001-2013
</metadata>
<g transform="translate(0.000000,512.000000) scale(0.100000,-0.100000)"
fill="#000000" stroke="none">
<path d="M447 3766 c-57 -15 -93 -46 -118 -101 -24 -51 -24 -99 0 -150 36 -80
109 -115 241 -115 l60 0 0 -805 0 -805 -60 0 c-132 0 -205 -35 -241 -115 -34
-75 -14 -164 49 -217 48 -40 110 -48 377 -48 l245 0 0 45 c0 25 2 45 5 45 3 0
28 -11 55 -25 178 -90 305 -120 510 -120 158 1 224 10 340 47 274 87 489 308
562 575 31 113 31 344 -1 458 -46 171 -126 300 -268 435 -140 133 -278 202
-474 236 -217 38 -444 -6 -659 -127 l-65 -37 -3 419 -2 419 -253 -1 c-172 0
-267 -4 -300 -13z m1246 -1041 c199 -42 377 -217 417 -412 7 -31 10 -98 8
-149 -3 -81 -8 -100 -41 -167 -59 -120 -165 -204 -308 -243 -88 -24 -260 -29
-359 -10 -280 52 -439 262 -402 529 17 119 65 213 156 302 39 39 95 83 123 98
114 61 270 81 406 52z"/>
<path d="M3364 3641 c-89 -40 -104 -93 -104 -363 l0 -208 -95 0 c-138 0 -191
-14 -241 -64 -46 -46 -61 -96 -49 -168 6 -32 19 -54 49 -84 50 -50 103 -64
241 -64 l95 0 0 -449 c0 -420 1 -453 20 -512 54 -173 197 -297 405 -349 107
-27 286 -36 411 -20 216 27 508 116 613 188 93 63 120 123 97 213 -15 57 -44
92 -100 121 -55 28 -110 20 -235 -37 -193 -87 -376 -123 -565 -112 -114 7
-159 17 -207 50 -64 43 -64 39 -67 495 l-3 412 375 0 c242 0 394 4 428 11 150
32 196 223 79 322 -50 42 -105 47 -506 47 l-375 0 0 208 c0 215 -7 265 -43
316 -25 36 -90 66 -142 66 -22 0 -58 -9 -81 -19z"/>
</g>
</svg>
