<?xml version="1.0" standalone="no"?>
<!DOCTYPE svg PUBLIC "-//W3C//DTD SVG 20010904//EN"
 "http://www.w3.org/TR/2001/REC-SVG-20010904/DTD/svg10.dtd">
<svg version="1.0" xmlns="http://www.w3.org/2000/svg"
 width="512.000000pt" height="512.000000pt" viewBox="0 0 512.000000 512.000000"
 preserveAspectRatio="xMidYMid meet">

<g transform="translate(0.000000,512.000000) scale(0.100000,-0.100000)"
fill="#000000" stroke="none">
<path d="M522 3715 c-54 -17 -80 -39 -103 -90 -31 -68 -18 -148 33 -203 29
-30 107 -52 185 -52 l63 0 0 -774 0 -773 -79 -6 c-97 -6 -163 -33 -190 -78
-61 -101 -27 -215 79 -263 41 -18 69 -21 298 -24 l252 -4 0 46 c0 25 3 46 7
46 4 0 39 -15 78 -34 309 -151 710 -139 980 29 90 56 196 159 253 246 176 271
159 676 -40 944 -280 377 -749 478 -1177 254 -52 -27 -95 -49 -97 -49 -2 0 -4
180 -4 400 l0 400 -247 -1 c-179 0 -260 -4 -291 -14z m1221 -1000 c191 -50
346 -209 387 -396 7 -32 11 -93 8 -141 -10 -196 -145 -346 -358 -399 -83 -21
-300 -18 -375 5 -187 57 -307 183 -337 354 -42 245 127 501 377 573 76 22 222
24 298 4z"/>
<path d="M3353 3609 c-17 -5 -45 -23 -62 -40 -50 -50 -61 -107 -61 -325 l0
-192 -118 -4 c-101 -3 -124 -7 -162 -28 -103 -57 -120 -202 -34 -281 41 -37
84 -49 207 -56 l107 -6 0 -413 c0 -449 3 -483 54 -579 137 -262 503 -350 975
-235 284 70 434 152 459 253 24 95 -32 191 -126 216 -48 13 -88 4 -198 -47
-181 -83 -291 -107 -489 -106 -136 0 -155 2 -210 24 -103 43 -99 27 -103 492
l-3 396 378 4 c338 3 382 6 421 22 139 60 148 252 14 318 -46 23 -53 23 -429
26 l-381 3 -4 217 c-3 201 -5 220 -25 258 -38 71 -130 108 -210 83z"/>
</g>
</svg>
